# xmcd
#
# Track frame offsets:
#	150
#	25615
#	52226
#	71503
#	96221
#	119617
#	139793
#	168946
#	191355
#	215132
#
# Disc length: 3222 seconds
#
# Revision: 3606696897
# Processed by: cddbd v1.5.2PL0 Copyright (c) Steve Scherf et al.
# Submitted via: EZCDAudioConverter 8.0.2.1
#
DISCID=920c940a
DTITLE=Various Artist - st. Lam Phương. Vol 03. Em Đi Rồi
DYEAR=2011
DGENRE=Contemporary Pop
TTITLE0=Hiền Thục - Hạnh phúc trong tầm tay
TTITLE1=Xuân Phú - Giọt lệ sầu
TTITLE2=Lều Phương Anh - Chờ một ngày
TTITLE3=Hồ Trung Dũng - Say
TTITLE4=Hiền Thục - Em Đi Rồi
TTITLE5=Hồng Vân - Bọt biển
TTITLE6=Lều Phương Anh - Cảm ơn người tình
TTITLE7=Xuân Phú - Trả lại em
TTITLE8=Hiền Thục - Thu sầu
TTITLE9=Hồ Trung Dũng - Mùa xuân không còn nữa
EXTD=
EXTT0=
EXTT1=
EXTT2=
EXTT3=
EXTT4=
EXTT5=
EXTT6=
EXTT7=
EXTT8=
EXTT9=
PLAYORDER=
